<?xml version="1.0" encoding="utf-8"?>
<!-- Generator: Adobe Illustrator 28.3.0, SVG Export Plug-In . SVG Version: 6.00 Build 0)  -->
<svg version="1.1" id="Layer_1" xmlns="http://www.w3.org/2000/svg" xmlns:xlink="http://www.w3.org/1999/xlink" x="0px" y="0px"
	 viewBox="0 0 100 100" style="enable-background:new 0 0 100 100;" xml:space="preserve">
<style type="text/css">
	.st0{fill:#E81132;}
</style>
<path class="st0" d="M72.7,52.1l-5.3,25.6c-0.9,4.1-4.6,7.1-8.8,7.1c-0.5,0-1.1,0-1.6-0.1l-6-0.9l-0.5-0.1l-0.5,0.1l-6,0.9
	c-0.5,0.1-1.1,0.1-1.6,0.1c-4.2,0-7.9-3-8.9-7.1L28,52.1c-1-4.3,0-8.8,2.6-12.3c2.6-3.5,6.5-5.7,10.8-6.1c3.1-0.3,6.6-0.4,8.9-0.4
	s5.8,0.1,8.9,0.4c4.3,0.4,8.3,2.6,10.8,6.1C72.7,43.4,73.7,47.8,72.7,52.1 M59.5,30.7c-2.9-0.2-6.6-0.4-9.1-0.4
	c-2.5,0-6.3,0.2-9.1,0.4c-10.9,0.9-18.5,11.3-16.1,22l5.3,25.6c1.2,5.6,6.2,9.5,11.8,9.5c0.7,0,1.4-0.1,2.2-0.2l6-0.9l6,0.9
	c0.7,0.1,1.5,0.2,2.2,0.2c5.6,0,10.6-3.9,11.8-9.5l5.3-25.6C78,42.1,70.5,31.6,59.5,30.7 M54,18.2c2-2,4.3-2.7,6.1-2.9
	c-0.2,1.7-0.9,4.1-2.9,6c-2,2-4.3,2.7-6.1,2.9C51.3,22.5,52,20.2,54,18.2 M40.4,18.3c4.6,0,7.6,5.6,7.6,7.6c0,0,0,0,0,0.1
	c0,0.8,0.1,1.4,0.1,1.4s0.6,0.1,1.6,0.1c2.2,0,6.3-0.5,9.6-3.8c4.8-4.8,3.7-11.2,3.7-11.2s-0.6-0.1-1.6-0.1c-2.2,0-6.3,0.5-9.6,3.8
	c-1.2,1.2-2,2.5-2.6,3.7c-1.4-2.5-5.3-4.5-8.8-4.5c-0.8,0-1.5,0.7-1.5,1.5C38.9,17.6,39.6,18.3,40.4,18.3"/>
<g>
</g>
<g>
</g>
<g>
</g>
<g>
</g>
<g>
</g>
<g>
</g>
<g>
</g>
<g>
</g>
<g>
</g>
<g>
</g>
<g>
</g>
<g>
</g>
<g>
</g>
<g>
</g>
<g>
</g>
</svg>
